<svg width="108" height="120" viewBox="0 0 108 120" fill="none" xmlns="http://www.w3.org/2000/svg">
<g style="mix-blend-mode:multiply">
<rect y="12" width="108" height="108" fill="url(#paint0_radial_2_498)" fill-opacity="0.25"/>
</g>
<path d="M87.3841 78.5967L74.0423 76.0372L66.7547 81.162L80.0965 83.7215C81.4747 83.9849 82.8152 84.0052 84.0747 83.8083C84.4337 83.7533 84.7899 83.678 85.1373 83.5883C85.6585 83.4522 86.1623 83.2785 86.6458 83.0671C87.2915 82.7863 87.9053 82.4446 88.4757 82.0422L95.7633 76.9174C93.4788 78.5214 90.5343 79.1989 87.3841 78.5967Z" fill="#419973"/>
<path d="M65.0717 82.9636C64.5708 82.8681 64.0844 82.5641 63.7398 82.0835L57.1442 72.798L43.7532 70.2299C37.0215 68.9385 31.8996 62.2763 32.3107 55.3477L34.9716 10.432C35.1887 6.74623 36.9288 3.72926 39.5231 1.90518L32.2354 7.02997C29.6412 8.85405 27.9011 11.871 27.6839 15.5568L25.0231 60.4725C24.612 67.4011 29.7368 74.0633 36.4656 75.3547L49.8566 77.9229L56.4522 87.2083C56.7939 87.6918 57.2832 87.9929 57.7841 88.0884C58.23 88.1753 58.6846 88.0942 59.0552 87.8337L66.3428 82.7089C65.9722 82.9694 65.5176 83.0476 65.0717 82.9636Z" fill="#419973"/>
<path d="M100.316 68.3866L102.977 23.4709C103.388 16.5423 98.266 9.88004 91.5343 8.58871L47.9041 0.218239C41.1724 -1.07309 35.3846 3.49868 34.9734 10.4273L32.3126 55.343C31.9015 62.2716 37.0262 68.9338 43.755 70.2251L57.1461 72.7933L63.7417 82.0788C64.0834 82.5623 64.5727 82.8634 65.0736 82.9589C65.5716 83.0545 66.0812 82.9445 66.472 82.6086L74.0492 76.0361L87.391 78.5956C94.1198 79.887 99.9048 75.3152 100.316 68.3866Z" fill="url(#paint1_linear_2_498)"/>
<path d="M65.5435 82.7251C65.0426 82.6296 64.5562 82.3256 64.2116 81.8449L57.616 72.5595L44.225 69.9913C37.4933 68.7 32.3714 62.0378 32.7825 55.1092L35.4434 10.1935C35.6895 6.03286 37.8784 2.72347 41.043 1.0239C37.6265 2.6424 35.2349 6.06761 34.9743 10.4309L32.3135 55.3466C31.9023 62.2752 37.0271 68.9374 43.7559 70.2288L57.147 72.7969L63.7426 82.0824C64.0843 82.5659 64.5736 82.867 65.0745 82.9625C65.5319 83.0494 65.9952 82.9567 66.3687 82.6788C66.1081 82.7599 65.8244 82.7772 65.5435 82.7251Z" fill="#C7F9CC"/>
<path d="M87.858 78.3607L74.5162 75.8013L74.2093 76.0676L87.3918 78.5953C90.0816 79.1107 92.6179 78.6908 94.7229 77.5588C92.7135 78.5113 90.3538 78.8385 87.858 78.3607Z" fill="#C7F9CC"/>
<g filter="url(#filter0_d_2_498)">
<path d="M60.7149 51.8353L52.0838 39.1334C51.6176 38.4443 51.7942 37.5091 52.4833 37.04L58.966 32.6362C59.6551 32.17 60.5903 32.3467 61.0594 33.0358L64.7886 38.5225L82.2331 26.6631C82.9222 26.194 83.8574 26.3735 84.3265 27.0626L88.7303 33.5453C89.1965 34.2344 89.0199 35.1696 88.3308 35.6358L63.671 52.397C62.6953 53.0601 61.375 52.8082 60.7149 51.8353Z" fill="#FFFCFB"/>
<path d="M52.3593 37.6729L58.842 33.269C59.5311 32.8029 60.4663 32.9795 60.9354 33.6686L64.6646 39.1553L82.1091 27.2959C82.7982 26.8268 83.7334 27.0064 84.2025 27.6954L88.6063 34.1781C88.7742 34.4243 88.8582 34.7051 88.864 34.9831C89.058 34.5285 89.0261 33.9842 88.725 33.5441L84.3211 27.0614C83.855 26.3723 82.9169 26.1957 82.2278 26.6618L64.7833 38.5212L61.054 33.0345C60.5879 32.3454 59.6498 32.1688 58.9607 32.6349L52.478 37.0388C52.0379 37.337 51.8063 37.8292 51.8207 38.3243C51.9337 38.0695 52.1132 37.8408 52.3593 37.6729Z" fill="white"/>
<path d="M88.4846 34.7949L63.8248 51.5561C62.8549 52.2162 61.5317 51.9644 60.8715 50.9944L52.2405 38.2925C52.0957 38.0782 52.0118 37.8379 51.9886 37.5976C51.7425 38.0724 51.7598 38.6631 52.0812 39.135L60.7123 51.8369C61.3725 52.8069 62.6927 53.0588 63.6656 52.4016L88.3253 35.6403C88.7973 35.3189 89.0318 34.7746 88.9768 34.2448C88.8639 34.4561 88.6988 34.6472 88.4846 34.7949Z" fill="#419973"/>
</g>
<defs>
<filter id="filter0_d_2_498" x="49.8201" y="26.4017" width="41.1704" height="30.3658" filterUnits="userSpaceOnUse" color-interpolation-filters="sRGB">
<feFlood flood-opacity="0" result="BackgroundImageFix"/>
<feColorMatrix in="SourceAlpha" type="matrix" values="0 0 0 0 0 0 0 0 0 0 0 0 0 0 0 0 0 0 127 0" result="hardAlpha"/>
<feOffset dy="2"/>
<feGaussianBlur stdDeviation="1"/>
<feComposite in2="hardAlpha" operator="out"/>
<feColorMatrix type="matrix" values="0 0 0 0 0 0 0 0 0 0 0 0 0 0 0 0 0 0 0.2 0"/>
<feBlend mode="normal" in2="BackgroundImageFix" result="effect1_dropShadow_2_498"/>
<feBlend mode="normal" in="SourceGraphic" in2="effect1_dropShadow_2_498" result="shape"/>
</filter>
<radialGradient id="paint0_radial_2_498" cx="0" cy="0" r="1" gradientUnits="userSpaceOnUse" gradientTransform="translate(54 66) rotate(90) scale(54)">
<stop offset="0.171875" stop-color="#696969"/>
<stop offset="0.572917" stop-color="#BEBEBE"/>
<stop offset="1" stop-color="white" stop-opacity="0"/>
</radialGradient>
<linearGradient id="paint1_linear_2_498" x1="33.5353" y1="65.9161" x2="99.2054" y2="14.8764" gradientUnits="userSpaceOnUse">
<stop stop-color="#57CC99"/>
<stop offset="0.2184" stop-color="#63D699"/>
<stop offset="0.6903" stop-color="#78E799"/>
<stop offset="1" stop-color="#80ED99"/>
</linearGradient>
</defs>
</svg>
