<svg width="134" height="150" viewBox="0 0 134 150" fill="none" xmlns="http://www.w3.org/2000/svg">
<g style="mix-blend-mode:multiply">
<rect x="15" y="31" width="118.474" height="118.402" fill="url(#paint0_radial_2_661)" fill-opacity="0.25"/>
</g>
<path d="M9.99405 85.7087L60.1226 95.3449C68.7773 97.0073 79.045 91.0004 83.0623 81.9273L106.359 29.3487C108.182 25.2402 108.406 21.2038 107.303 17.8637C107.002 16.9545 106.603 16.0947 106.108 15.2997C105.945 15.0334 105.77 14.7785 105.583 14.5274C105.397 14.2763 105.203 14.0366 104.998 13.8008L114.953 25.1793C118.232 28.9265 118.959 34.747 116.311 40.7273L93.0142 93.3058C88.9931 102.379 78.7254 108.386 70.0746 106.723L19.946 97.0872C16.9977 96.5204 14.6162 95.1356 12.9195 93.1955L2.96381 81.8169C4.66431 83.7571 7.04576 85.1419 9.99405 85.7087Z" fill="#419973"/>
<path d="M1.61164 66.2725L24.9089 13.694C28.93 4.6209 39.2014 -1.38602 47.8485 0.276439L97.9771 9.91261C106.632 11.5751 110.379 20.2792 106.362 29.3485L83.0645 81.927C79.0434 91.0002 68.7757 97.0071 60.1248 95.3446L9.99622 85.7085C1.34536 84.046 -2.40564 75.3419 1.61164 66.2725Z" fill="url(#paint1_linear_2_661)"/>
<path d="M105.04 13.8396C107.744 17.5868 108.201 23.0002 105.739 28.5544L82.4422 81.133C78.4211 90.2061 68.1535 96.213 59.5026 94.5506L9.37402 84.9144C6.40671 84.3438 4.01767 82.9438 2.31717 80.9884C4.03289 83.3623 6.64638 85.0666 9.99793 85.7133L60.1265 95.3494C68.7812 97.0119 79.0489 91.005 83.0662 81.9319L106.363 29.3533C109.007 23.3921 108.296 17.5906 105.04 13.8396Z" fill="#C7F9CC"/>
<path d="M31.1391 62.5521L16.2987 59.7598L14.8189 57.0549L23.8692 42.5189L37.2335 42.6064L38.7133 45.3112L31.1391 62.5521Z" fill="#419973"/>
<path d="M51.7697 66.6374L36.9255 63.8489L35.4494 61.1441L50.0844 33.978L63.4487 34.0617L64.9286 36.7665L51.7697 66.6374Z" fill="#419973"/>
<path d="M72.3969 70.7256L57.5527 67.9371L56.0767 65.2323L76.4675 25.1736L89.8318 25.2572L91.3078 27.9659L72.3969 70.7256Z" fill="#419973"/>
<path d="M29.663 59.8457L14.8189 57.0534L22.3931 39.8126L37.2335 42.6049L29.663 59.8457Z" fill="white"/>
<path d="M50.2898 63.932L35.4494 61.1434L48.6083 31.2725L63.4487 34.061L50.2898 63.932Z" fill="white"/>
<path d="M70.9171 68.0202L56.0767 65.2316L74.9876 22.4681L89.8318 25.2566L70.9171 68.0202Z" fill="white"/>
<defs>
<radialGradient id="paint0_radial_2_661" cx="0" cy="0" r="1" gradientUnits="userSpaceOnUse" gradientTransform="translate(74.237 90.201) rotate(90) scale(59.201 59.237)">
<stop offset="0.171875" stop-color="#696969"/>
<stop offset="0.572917" stop-color="#BEBEBE"/>
<stop offset="1" stop-color="white" stop-opacity="0"/>
</radialGradient>
<linearGradient id="paint1_linear_2_661" x1="-1.17984" y1="84.4093" x2="104.613" y2="14.2284" gradientUnits="userSpaceOnUse">
<stop stop-color="#57CC99"/>
<stop offset="0.2184" stop-color="#63D699"/>
<stop offset="0.6903" stop-color="#78E799"/>
<stop offset="1" stop-color="#80ED99"/>
</linearGradient>
</defs>
</svg>
