<svg width="86" height="33" viewBox="0 0 86 33" fill="none" xmlns="http://www.w3.org/2000/svg">
<path d="M0.447998 31.6299V2.08409C0.447998 1.52336 0.715208 1.24219 1.24883 1.24219H13.5181C14.9512 1.24219 16.2584 1.52336 17.4388 2.08409C18.6192 2.64562 19.6455 3.3962 20.5169 4.33583C21.3876 5.27625 22.0624 6.34965 22.5407 7.55523C23.0181 8.7624 23.2573 10.0112 23.2573 11.3009C23.2573 12.5922 23.0109 13.8338 22.5198 15.0258C22.0279 16.2185 21.3459 17.2775 20.4752 18.2035C19.6038 19.1295 18.563 19.8657 17.3553 20.4128C16.1469 20.9599 14.8397 21.2339 13.4346 21.2339H6.56257V31.6299C6.56257 32.1914 6.28091 32.4718 5.71921 32.4718H1.24963C0.714406 32.4718 0.447998 32.1914 0.447998 31.6299ZM12.2952 6.58756H6.56096V15.931H12.2952C13.7002 15.931 14.8389 15.4888 15.7103 14.6052C16.581 13.7217 17.0175 12.6202 17.0175 11.3009C17.0175 10.6561 16.9052 10.0457 16.6805 9.46973C16.455 8.89458 16.1324 8.39633 15.7112 7.97578C15.2899 7.55523 14.79 7.21799 14.2146 6.96566C13.6369 6.71333 12.9973 6.58756 12.2952 6.58756Z" fill="#2D2D2D"/>
<path d="M57.5752 16.86C57.5752 19.0765 57.1539 21.16 56.3106 23.1105C55.4672 25.0611 54.3141 26.7585 52.8537 28.2036C51.3916 29.6487 49.6768 30.7918 47.7101 31.6337C45.7425 32.4756 43.6481 32.8961 41.4278 32.8961C39.2074 32.8961 37.1203 32.4756 35.1664 31.6337C33.2124 30.7918 31.5121 29.6487 30.0645 28.2036C28.6169 26.7585 27.4782 25.0611 26.6493 23.1105C25.8196 21.1608 25.4055 19.0773 25.4055 16.86C25.4055 14.6155 25.8196 12.5183 26.6493 10.5678C27.4782 8.61804 28.6161 6.92063 30.0645 5.47474C31.5121 4.02966 33.2124 2.88657 35.1664 2.04467C37.1195 1.20277 39.2066 0.782227 41.4278 0.782227C43.6481 0.782227 45.7425 1.20277 47.7101 2.04467C49.6768 2.88657 51.3916 4.03046 52.8537 5.47474C54.3149 6.92063 55.468 8.61724 56.3106 10.5678C57.1539 12.5183 57.5752 14.6155 57.5752 16.86ZM51.378 16.86C51.378 15.4285 51.1252 14.0964 50.6189 12.8612C50.1126 11.6268 49.4176 10.5534 48.5318 9.64178C47.6467 8.73019 46.5987 8.00765 45.391 7.47415C44.1817 6.94146 42.8609 6.67471 41.4278 6.67471C40.0219 6.67471 38.7147 6.94146 37.5071 7.47415C36.2986 8.00765 35.2514 8.73019 34.3663 9.64178C33.4812 10.5542 32.792 11.6276 32.3001 12.8612C31.8082 14.0964 31.5618 15.4285 31.5618 16.86C31.5618 18.2634 31.8074 19.5819 32.3001 20.8164C32.792 22.0516 33.4804 23.125 34.3663 24.0357C35.2514 24.9481 36.2986 25.6707 37.5071 26.2034C38.7155 26.7369 40.0219 27.0028 41.4278 27.0028C42.8617 27.0028 44.1825 26.7361 45.391 26.2034C46.5995 25.6707 47.6467 24.9481 48.5318 24.0357C49.4168 23.1242 50.1126 22.0508 50.6189 20.8164C51.1252 19.5819 51.378 18.2634 51.378 16.86Z" fill="#2D2D2D"/>
<path d="M62.2561 27.7174C62.0306 27.4651 61.8621 27.2128 61.7506 26.9597C61.6382 26.7073 61.7361 26.427 62.0459 26.1178L64.8704 23.3397C65.1232 23.1154 65.3687 23.0385 65.6087 23.1082C65.847 23.1787 66.0934 23.3261 66.3469 23.5504C66.7682 23.971 67.2392 24.3995 67.7592 24.8345C68.2792 25.2695 68.8409 25.6628 69.4459 26.0128C70.0502 26.3637 70.7034 26.644 71.4063 26.8547C72.1084 27.0654 72.8539 27.1703 73.6411 27.1703C74.4844 27.1703 75.2291 27.0582 75.8759 26.8339C76.5218 26.6096 77.0771 26.3076 77.5409 25.9287C78.0047 25.5498 78.3562 25.1149 78.5945 24.6238C78.8328 24.1328 78.9532 23.6209 78.9532 23.0874C78.9532 22.4137 78.7494 21.8458 78.3418 21.3828C77.9341 20.9198 77.435 20.5273 76.8452 20.2044C76.2546 19.8824 75.6151 19.6149 74.9266 19.405C74.2373 19.1943 73.6122 19.0197 73.0505 18.8787C69.6489 17.8686 67.0563 16.627 65.2717 15.1538C63.4862 13.6807 62.5939 11.7518 62.5939 9.36629C62.5939 8.07581 62.8684 6.89747 63.4164 5.83048C63.9645 4.76429 64.7372 3.84549 65.7355 3.07328C66.7329 2.30187 67.9341 1.70509 69.34 1.28454C70.7451 0.863996 72.2914 0.65332 73.9781 0.65332C75.8333 0.65332 77.6107 1.08829 79.3119 1.95822C81.0123 2.82816 82.4952 3.89435 83.7598 5.1568C84.2654 5.69029 84.2509 6.23741 83.7173 6.79814L81.3982 9.28138C81.1166 9.53371 80.8502 9.61141 80.5974 9.51288C80.3446 9.41515 80.0766 9.25334 79.7966 9.02905C79.4596 8.74869 79.0728 8.43948 78.637 8.10304C78.2013 7.7666 77.7231 7.45099 77.2039 7.15621C76.6831 6.86142 76.135 6.6163 75.5597 6.41924C74.9836 6.22299 74.3857 6.12446 73.7679 6.12446C73.2334 6.12446 72.6782 6.16692 72.1028 6.25103C71.5267 6.33514 71.0067 6.49695 70.5429 6.73486C70.0791 6.97357 69.6923 7.31001 69.3833 7.74497C69.0736 8.18074 68.9195 8.76231 68.9195 9.49206C68.9195 10.0256 69.0672 10.4886 69.3625 10.8811C69.6578 11.2744 70.0791 11.6172 70.6271 11.912C71.1752 12.2068 71.8211 12.48 72.5666 12.7331C73.3113 12.9854 74.133 13.2385 75.0333 13.4909C76.4665 13.9114 77.8162 14.3816 79.0808 14.9007C80.3454 15.4206 81.4488 16.0582 82.3909 16.816C83.3321 17.5738 84.084 18.4718 84.6465 19.5099C85.2082 20.5481 85.4899 21.7969 85.4899 23.2556C85.4899 24.7151 85.1665 26.0409 84.5205 27.2328C83.8738 28.4256 83.0095 29.4421 81.9278 30.284C80.8454 31.1259 79.5944 31.7715 78.1756 32.2201C76.7561 32.6687 75.2877 32.8938 73.7695 32.8938C71.5772 32.8938 69.4692 32.4172 67.4455 31.4623C65.4185 30.5099 63.69 29.2611 62.2561 27.7174Z" fill="#2D2D2D"/>
</svg>
