<svg width="150" height="36" viewBox="0 0 150 36" fill="none" xmlns="http://www.w3.org/2000/svg">
<path d="M17.7063 35.4691C15.323 35.4691 13.057 35.0071 10.9629 34.1066C8.86873 33.1982 7.02464 31.9531 5.46967 30.4027C3.9147 28.8444 2.67229 26.9963 1.76587 24.8977C0.859459 22.7991 0.40625 20.5282 0.40625 18.1399C0.40625 15.7515 0.867271 13.4806 1.77369 11.382C2.67229 9.28341 3.93033 7.42755 5.49311 5.85359C7.0559 4.28746 8.91561 3.02673 11.0097 2.12621C13.1039 1.21785 15.3699 0.763672 17.7532 0.763672C19.8942 0.763672 21.9883 1.16304 23.973 1.94611C24.3637 2.09489 24.8248 2.29066 25.3483 2.53341C25.8718 2.77616 26.3797 3.03456 26.8642 3.30863C27.3565 3.59053 27.7784 3.89593 28.1222 4.21699C28.4973 4.5772 28.6848 4.92174 28.6848 5.25063C28.6848 5.46989 28.6301 5.67349 28.5207 5.86143L27.5362 7.48237C27.2861 7.90522 26.9658 8.12449 26.5829 8.12449C26.2313 8.12449 25.8953 7.98352 25.5827 7.70945C24.52 6.95771 23.2932 6.33909 21.957 5.86926C20.6287 5.39942 19.2222 5.16449 17.7922 5.16449C15.8934 5.16449 14.1197 5.5247 12.5256 6.24512C10.9316 6.96554 9.54072 7.93654 8.4077 9.13463C7.26687 10.3406 6.36046 11.7344 5.71972 13.2927C5.07898 14.8432 4.75079 16.4954 4.75079 18.1947C4.75079 19.9801 5.10242 21.6793 5.78223 23.2455C6.46985 24.8116 7.41534 26.2054 8.60305 27.38C9.78295 28.5546 11.1816 29.4787 12.7444 30.1443C14.3072 30.802 15.995 31.1388 17.7453 31.1388C19.2691 31.1388 20.6443 30.9273 21.8398 30.4966C22.9807 30.0894 23.8871 29.6666 24.52 29.2202V21.0215C24.52 20.2385 24.9498 19.8156 25.7234 19.8156H27.6065C27.9269 19.8156 28.2082 19.9174 28.4582 20.1132C28.7239 20.3246 28.8567 20.63 28.8567 21.0294V30.9978C28.8567 31.1857 28.802 31.3815 28.6926 31.5773C28.5833 31.773 28.3957 31.961 28.1222 32.1332L28.0753 32.1959C26.6376 33.2765 25.0357 34.0909 23.301 34.6547C21.5663 35.2107 19.6832 35.5004 17.6985 35.5004L17.7063 35.4691Z" fill="#373737"/>
<path d="M24.7461 29.3225V21.0142C24.7461 20.3564 25.0743 20.0275 25.7306 20.0275H27.6138C27.8795 20.0275 28.1217 20.1136 28.3327 20.2781C28.5437 20.4425 28.6452 20.6931 28.6452 21.022V30.9904C28.6452 31.1392 28.5983 31.2958 28.5124 31.4602C28.4186 31.6247 28.2545 31.7813 28.0201 31.9301L27.9263 32.024C26.5198 33.0734 24.9571 33.8721 23.2458 34.4281C21.5267 34.984 19.6827 35.2581 17.7136 35.2581C15.3538 35.2581 13.1346 34.8118 11.0561 33.9112C8.97759 33.0107 7.17257 31.7891 5.63323 30.2543C4.09389 28.7117 2.87492 26.9028 1.98413 24.8199C1.08553 22.7369 0.640137 20.513 0.640137 18.1481C0.640137 15.7833 1.08553 13.5594 1.98413 11.4764C2.88273 9.39349 4.1017 7.57678 5.65667 6.01848C7.21164 4.46019 9.02447 3.23078 11.103 2.33808C13.1815 1.43756 15.4006 0.991211 17.7604 0.991211C19.878 0.991211 21.9253 1.38274 23.9022 2.15797C24.2929 2.30675 24.7461 2.50252 25.2696 2.74527C25.7931 2.98802 26.2932 3.2386 26.7699 3.50484C27.2465 3.77108 27.6529 4.06864 27.981 4.38187C28.3092 4.6951 28.4733 4.98484 28.4733 5.25891C28.4733 5.43902 28.4264 5.60345 28.3405 5.75223L27.3559 7.37318C27.145 7.73339 26.8949 7.9135 26.5902 7.9135C26.2854 7.9135 26.0041 7.79603 25.7385 7.55328C24.6289 6.77805 23.4021 6.14378 22.0425 5.66611C20.6828 5.18844 19.2685 4.94568 17.8073 4.94568C15.8617 4.94568 14.0801 5.31372 12.4548 6.0498C10.8295 6.78588 9.4308 7.76472 8.26652 8.99413C7.10225 10.2235 6.18802 11.6331 5.53165 13.2148C4.87528 14.8045 4.5471 16.4646 4.5471 18.203C4.5471 20.0275 4.89872 21.7424 5.60198 23.3477C6.30523 24.953 7.25853 26.3468 8.46969 27.5449C9.68084 28.743 11.0873 29.6749 12.6814 30.3483C14.2754 31.0217 15.9789 31.3585 17.7683 31.3585C19.3232 31.3585 20.7141 31.1392 21.9331 30.7085C23.1599 30.2778 24.0975 29.8158 24.7539 29.3381L24.7461 29.3225Z" fill="#373737"/>
<path d="M43.9767 35.5164C42.3671 35.5164 40.8355 35.211 39.4056 34.6002C37.9835 33.9894 36.7254 33.1515 35.6862 32.1022C34.6469 31.0529 33.803 29.8 33.1935 28.3748C32.584 26.9496 32.2793 25.407 32.2793 23.7939C32.2793 22.1808 32.584 20.646 33.1935 19.2129C33.7952 17.7878 34.6391 16.527 35.6784 15.4621C36.7254 14.3971 37.9756 13.5514 39.4056 12.9406C40.8355 12.3298 42.3671 12.0244 43.9767 12.0244C45.5864 12.0244 47.1179 12.3298 48.5479 12.9406C49.97 13.5514 51.2359 14.3971 52.2908 15.4542C53.3534 16.5192 54.1973 17.7799 54.8068 19.2051C55.4163 20.6381 55.7211 22.1729 55.7211 23.786C55.7211 25.3992 55.4163 26.934 54.8068 28.367C54.1973 29.7921 53.3534 31.0529 52.2908 32.1022C51.2281 33.1515 49.97 33.9894 48.5479 34.5923C47.1179 35.2031 45.5864 35.5085 43.9767 35.5085V35.5164ZM43.9767 16.065C42.9375 16.065 41.9451 16.2686 41.0153 16.6758C40.0932 17.083 39.2806 17.6468 38.6008 18.3594C37.921 19.072 37.3662 19.902 36.9677 20.8339C36.5613 21.7579 36.3582 22.7602 36.3582 23.8017C36.3582 24.8432 36.5613 25.8455 36.9677 26.7695C37.374 27.7014 37.921 28.5236 38.6008 29.2205C39.2806 29.9174 40.0932 30.4734 41.0153 30.8806C41.9373 31.2878 42.9375 31.4914 43.9767 31.4914C45.016 31.4914 46.0084 31.2878 46.9382 30.8806C47.8603 30.4734 48.6807 29.9174 49.3762 29.2205C50.0716 28.5236 50.6264 27.7014 51.0327 26.7773C51.439 25.8533 51.6422 24.851 51.6422 23.8095C51.6422 22.7681 51.439 21.7736 51.0327 20.8417C50.6264 19.9099 50.0716 19.0798 49.3762 18.3672C48.6807 17.6546 47.8603 17.0908 46.9382 16.6836C46.0084 16.2765 45.016 16.0729 43.9767 16.0729V16.065Z" fill="#373737"/>
<path d="M32.4985 23.7943C32.4985 22.2047 32.7955 20.7091 33.3971 19.2995C33.991 17.89 34.8115 16.6684 35.8429 15.6191C36.8743 14.5698 38.0933 13.7476 39.4998 13.1525C40.9063 12.5574 42.3988 12.252 43.985 12.252C45.5712 12.252 47.0637 12.5495 48.4702 13.1525C49.8767 13.7554 51.1035 14.5777 52.1427 15.6191C53.1898 16.6684 54.0103 17.8978 54.6119 19.2995C55.2058 20.7091 55.5105 22.2047 55.5105 23.7943C55.5105 25.384 55.2136 26.8796 54.6119 28.2891C54.0103 29.6986 53.1898 30.9202 52.1427 31.946C51.0957 32.9797 49.8689 33.7941 48.4702 34.397C47.0715 35 45.5712 35.2976 43.985 35.2976C42.3988 35.2976 40.9063 35 39.4998 34.397C38.0933 33.8019 36.8743 32.9797 35.8429 31.946C34.8115 30.9124 33.9988 29.6908 33.3971 28.2891C32.7955 26.8796 32.4985 25.384 32.4985 23.7943ZM36.132 23.7943C36.132 24.875 36.343 25.8929 36.7571 26.8483C37.1791 27.8036 37.7339 28.6415 38.4371 29.3619C39.1404 30.0823 39.9686 30.654 40.9219 31.069C41.8752 31.4918 42.8911 31.6954 43.9694 31.6954C45.0477 31.6954 46.0635 31.484 47.0168 31.069C47.9701 30.654 48.8062 30.0823 49.5251 29.3619C50.244 28.6415 50.8066 27.8036 51.2285 26.8483C51.6505 25.8929 51.8536 24.875 51.8536 23.7943C51.8536 22.7137 51.6426 21.6957 51.2285 20.7404C50.8066 19.785 50.244 18.9393 49.5251 18.2032C48.8062 17.4672 47.9701 16.8955 47.0168 16.4727C46.0635 16.0576 45.0477 15.8462 43.9694 15.8462C42.8911 15.8462 41.8752 16.0576 40.9219 16.4727C39.9686 16.8955 39.1326 17.4672 38.4371 18.2032C37.7339 18.9393 37.1713 19.785 36.7571 20.7404C36.3352 21.6957 36.132 22.7137 36.132 23.7943Z" fill="#373737"/>
<path d="M61.8161 34.9757C61.0347 34.9757 60.6128 34.545 60.6128 33.7698V2.50984C60.6128 1.67196 61.0582 1.20996 61.863 1.20996H72.9822C74.4669 1.20996 75.8812 1.4997 77.1705 2.05567C78.4598 2.61948 79.5928 3.39471 80.5383 4.35005C81.4838 5.31322 82.2261 6.44866 82.7574 7.74072C83.2888 9.04061 83.5545 10.4188 83.5545 11.844C83.5545 13.2692 83.2888 14.6004 82.7574 15.8846C82.2261 17.161 81.4838 18.2964 80.5617 19.2518C79.6319 20.2149 78.5145 20.9824 77.2408 21.5462C75.9671 22.11 74.5763 22.3919 73.1151 22.3919H64.9104V33.762C64.9104 34.545 64.4807 34.9679 63.7071 34.9679H61.824L61.8161 34.9757ZM72.9744 18.1398C73.8339 18.1398 74.6466 17.9675 75.3889 17.623C76.139 17.2784 76.811 16.8086 77.3893 16.2291C77.9675 15.6497 78.4207 14.9762 78.7567 14.2088C79.0849 13.4493 79.2568 12.6349 79.2568 11.8048C79.2568 10.9748 79.0927 10.1604 78.7567 9.40081C78.4285 8.63341 77.9753 7.95997 77.4127 7.3805C76.8501 6.80887 76.1781 6.33904 75.4202 5.99449C74.6622 5.64994 73.8418 5.47766 72.9822 5.47766H64.9104V18.1476H72.9822L72.9744 18.1398Z" fill="#373737"/>
<path d="M60.8315 33.7702V2.51031C60.8315 1.78989 61.1754 1.42969 61.863 1.42969H72.9822C74.4434 1.42969 75.8108 1.70376 77.0845 2.25973C78.3504 2.81571 79.4521 3.55962 80.382 4.50712C81.304 5.4468 82.0307 6.55876 82.5542 7.82732C83.0778 9.10372 83.3356 10.4428 83.3356 11.8444C83.3356 13.2461 83.0778 14.5382 82.5542 15.7989C82.0307 17.0596 81.3118 18.1559 80.4054 19.1034C79.4912 20.0431 78.4129 20.7949 77.1548 21.3508C75.8968 21.9068 74.5528 22.1809 73.1228 22.1809H64.6994V33.7702C64.6994 34.428 64.3712 34.7569 63.7149 34.7569H61.8317C61.1754 34.7569 60.8472 34.428 60.8472 33.7702H60.8315ZM79.4756 11.8053C79.4756 10.9361 79.3036 10.106 78.9598 9.31514C78.616 8.52424 78.155 7.82732 77.569 7.22436C76.9829 6.62923 76.2953 6.14373 75.5061 5.79135C74.7169 5.43114 73.873 5.25103 72.9744 5.25103H64.6838V18.3674H72.9744C73.873 18.3674 74.7091 18.1873 75.4826 17.8271C76.2562 17.4668 76.9438 16.9892 77.5455 16.3862C78.1472 15.7832 78.616 15.0942 78.9598 14.2954C79.3036 13.5045 79.4756 12.6745 79.4756 11.8053Z" fill="#373737"/>
<path d="M103.769 35.4691C101.386 35.4691 99.1195 35.0071 97.0254 34.1066C94.9312 33.1982 93.0871 31.9531 91.5322 30.4027C89.9772 28.8444 88.7348 26.9963 87.8284 24.8977C86.9219 22.7991 86.4688 20.5282 86.4688 18.1399C86.4688 15.7515 86.9298 13.4806 87.8362 11.382C88.7348 9.28341 89.9928 7.42755 91.5556 5.85359C93.1184 4.27963 94.9781 3.02673 97.0722 2.12621C99.1664 1.21785 101.432 0.763672 103.816 0.763672C106.199 0.763672 108.465 1.22568 110.559 2.12621C112.653 3.03456 114.505 4.27963 116.076 5.8301C117.646 7.3884 118.897 9.24426 119.795 11.3585C120.702 13.4728 121.155 15.7672 121.155 18.1869C121.155 20.6065 120.694 22.8383 119.787 24.9212C118.889 27.0042 117.631 28.8444 116.068 30.4027C114.505 31.9531 112.645 33.206 110.551 34.1066C108.457 35.0149 106.175 35.4691 103.761 35.4691H103.769ZM103.816 5.10186C102.034 5.10186 100.331 5.44639 98.7444 6.11983C97.166 6.79326 95.7673 7.73294 94.603 8.89971C93.4309 10.0743 92.5011 11.4603 91.8291 13.0343C91.1571 14.6004 90.8133 16.2997 90.8133 18.0929C90.8133 19.8861 91.1571 21.5932 91.8291 23.175C92.5011 24.7568 93.4388 26.1663 94.603 27.3487C95.7751 28.5311 97.166 29.4786 98.7444 30.1521C100.323 30.8255 102.026 31.1701 103.816 31.1701C105.605 31.1701 107.301 30.8255 108.863 30.1521C110.426 29.4786 111.817 28.5311 112.981 27.3487C114.153 26.1584 115.083 24.7568 115.755 23.175C116.427 21.5932 116.771 19.8861 116.771 18.0929C116.771 16.2997 116.427 14.6082 115.755 13.0343C115.083 11.4682 114.146 10.0743 112.981 8.89971C111.809 7.72511 110.426 6.79326 108.856 6.11983C107.293 5.44639 105.597 5.10186 103.808 5.10186H103.816Z" fill="#373737"/>
<path d="M103.815 0.9756C106.175 0.9756 108.394 1.42195 110.473 2.32247C112.551 3.223 114.364 4.44458 115.919 5.97938C117.474 7.52202 118.701 9.33873 119.591 11.4373C120.49 13.536 120.935 15.7755 120.935 18.1717C120.935 20.5679 120.49 22.7526 119.591 24.8199C118.693 26.8872 117.474 28.6883 115.919 30.2309C114.364 31.7735 112.551 32.9951 110.473 33.8878C108.394 34.7883 106.159 35.2347 103.768 35.2347C101.377 35.2347 99.1893 34.7883 97.1108 33.8878C95.0323 32.9873 93.2273 31.7657 91.6879 30.2309C90.1486 28.6883 88.9296 26.8794 88.0388 24.7964C87.1402 22.7135 86.6948 20.4896 86.6948 18.1247C86.6948 15.7599 87.1402 13.536 88.0388 11.453C88.9374 9.37006 90.1564 7.55334 91.7114 5.99505C93.2663 4.43675 95.0792 3.20733 97.1577 2.31463C99.2362 1.41411 101.455 0.967773 103.815 0.967773V0.9756ZM90.594 18.0856C90.594 19.9101 90.9378 21.6328 91.6254 23.2538C92.313 24.8747 93.2507 26.2842 94.4462 27.498C95.6418 28.7117 97.0483 29.6593 98.6579 30.3483C100.268 31.0374 101.987 31.382 103.815 31.382C105.644 31.382 107.347 31.0374 108.949 30.3483C110.543 29.6593 111.942 28.7117 113.137 27.498C114.333 26.2842 115.27 24.8669 115.958 23.2538C116.646 21.6328 116.989 19.9179 116.989 18.0856C116.989 16.2532 116.646 14.5461 115.958 12.9408C115.27 11.3355 114.333 9.94169 113.137 8.7436C111.942 7.54551 110.543 6.60583 108.949 5.91674C107.347 5.22764 105.636 4.8831 103.815 4.8831C101.994 4.8831 100.275 5.22764 98.6579 5.91674C97.0405 6.60583 95.6418 7.54551 94.4462 8.7436C93.2507 9.94169 92.313 11.3434 91.6254 12.9408C90.9378 14.5461 90.594 16.261 90.594 18.0856Z" fill="#373737"/>
<path d="M136.665 35.43C134.313 35.43 132.04 34.9445 129.922 33.997C127.789 33.0417 125.976 31.593 124.523 29.6823C124.249 29.3065 124.116 29.0011 124.116 28.7427C124.116 28.4059 124.28 28.1005 124.608 27.85L126.038 26.6441C126.296 26.4561 126.57 26.37 126.851 26.37C127.117 26.37 127.375 26.4874 127.609 26.7224L127.992 27.1061C128.633 27.7795 129.367 28.3825 130.172 28.8993C130.985 29.4161 131.797 29.8468 132.602 30.1835C133.407 30.5202 134.188 30.7786 134.923 30.9587C135.65 31.131 136.282 31.225 136.798 31.225C137.705 31.225 138.666 31.0997 139.658 30.8491C140.643 30.6064 141.557 30.2227 142.37 29.7058C143.174 29.2047 143.846 28.5469 144.362 27.7717C144.87 27.0043 145.128 26.0959 145.128 25.0623C145.128 24.1931 144.886 23.4648 144.417 22.8932C143.932 22.3059 143.276 21.7891 142.463 21.3505C141.643 20.912 140.69 20.5362 139.619 20.2229C138.533 19.9097 137.408 19.6043 136.243 19.3067C132.532 18.3436 129.711 17.1768 127.875 15.8378C125.999 14.4674 125.046 12.588 125.046 10.2467C125.046 8.84499 125.327 7.5451 125.874 6.37834C126.421 5.21157 127.226 4.20142 128.265 3.35571C129.297 2.51783 130.555 1.86006 131.993 1.40588C133.43 0.951706 135.04 0.724609 136.79 0.724609C138.541 0.724609 140.471 1.13181 142.346 1.93054C144.214 2.72926 145.823 3.78639 147.12 5.05496L147.691 5.72057C147.925 5.98681 148.035 6.23739 148.035 6.47231C148.035 6.76988 147.894 7.06744 147.613 7.34934L146.269 8.65706C146.019 8.90764 145.776 9.03293 145.534 9.03293C145.229 9.03293 144.917 8.86849 144.573 8.51611C144.229 8.20289 143.784 7.82701 143.253 7.41199C142.729 7.00479 142.119 6.61326 141.447 6.24522C140.775 5.87718 140.025 5.56396 139.221 5.32121C138.424 5.07846 137.548 4.95317 136.618 4.95317C135.392 4.95317 134.329 5.10978 133.438 5.41517C132.563 5.72057 131.829 6.11993 131.274 6.60543C130.719 7.09093 130.297 7.64691 130.031 8.2577C129.758 8.86849 129.625 9.49493 129.625 10.1214C129.625 10.8183 129.844 11.4291 130.274 11.9538C130.719 12.4941 131.313 12.9717 132.04 13.3554C132.79 13.7548 133.641 14.0994 134.579 14.3969C135.532 14.6945 136.486 14.9764 137.439 15.2505C138.767 15.6028 140.15 16.0022 141.549 16.4407C142.948 16.8792 144.245 17.4509 145.409 18.1478C146.581 18.8526 147.55 19.7296 148.3 20.7711C149.058 21.8204 149.441 23.1829 149.441 24.8117C149.441 26.4405 149.105 27.9518 148.433 29.2673C147.761 30.575 146.847 31.7027 145.706 32.6188C144.565 33.535 143.206 34.2398 141.666 34.7253C140.127 35.2108 138.447 35.4535 136.673 35.4535L136.665 35.43Z" fill="#373737"/>
<path d="M144.738 8.34341C144.378 8.01452 143.933 7.63864 143.394 7.22362C142.854 6.80077 142.245 6.40923 141.557 6.03336C140.87 5.65749 140.112 5.34427 139.291 5.08586C138.471 4.83528 137.58 4.70215 136.627 4.70215C135.369 4.70215 134.29 4.85877 133.376 5.172C132.462 5.48522 131.72 5.90025 131.134 6.40924C130.548 6.91823 130.118 7.49769 129.836 8.1398C129.555 8.78192 129.414 9.43186 129.414 10.0975C129.414 10.8492 129.649 11.507 130.11 12.0708C130.571 12.6424 131.188 13.1279 131.946 13.5273C132.712 13.9345 133.564 14.2869 134.525 14.5844C135.478 14.882 136.439 15.1717 137.393 15.438C138.737 15.7982 140.104 16.1975 141.495 16.6282C142.886 17.0589 144.152 17.6227 145.308 18.3118C146.457 19.0009 147.402 19.8545 148.129 20.8724C148.863 21.8904 149.231 23.1903 149.231 24.7799C149.231 26.3695 148.902 27.8495 148.246 29.1338C147.59 30.418 146.699 31.5143 145.581 32.4148C144.464 33.3153 143.136 34.0044 141.612 34.4821C140.088 34.9598 138.447 35.2025 136.681 35.2025C134.353 35.2025 132.134 34.7327 130.024 33.7852C127.914 32.8455 126.148 31.4281 124.711 29.541C124.468 29.2121 124.351 28.9458 124.351 28.7344C124.351 28.4682 124.484 28.2254 124.757 28.014L126.187 26.8002C126.398 26.6514 126.617 26.5731 126.859 26.5731C127.07 26.5731 127.273 26.6671 127.461 26.8629C127.656 27.0586 127.781 27.1839 127.844 27.2466C128.5 27.9357 129.243 28.5386 130.063 29.0633C130.884 29.5879 131.704 30.0186 132.532 30.3632C133.353 30.7077 134.134 30.9661 134.884 31.1462C135.634 31.3263 136.275 31.4125 136.814 31.4125C137.744 31.4125 138.713 31.2872 139.729 31.0288C140.745 30.7782 141.675 30.3867 142.511 29.862C143.347 29.3374 144.034 28.6718 144.574 27.8652C145.113 27.0586 145.378 26.1111 145.378 25.0383C145.378 24.1065 145.12 23.3391 144.62 22.7205C144.112 22.1097 143.44 21.5772 142.604 21.123C141.768 20.6767 140.807 20.293 139.713 19.9797C138.619 19.6665 137.494 19.3611 136.33 19.0557C132.626 18.1004 129.86 16.9493 128.039 15.6181C126.219 14.2869 125.304 12.478 125.304 10.2071C125.304 8.8289 125.57 7.56817 126.109 6.43273C126.648 5.29729 127.422 4.31062 128.438 3.4884C129.454 2.66618 130.673 2.03191 132.087 1.57773C133.501 1.12356 135.08 0.904297 136.814 0.904297C138.549 0.904297 140.432 1.30365 142.284 2.09455C144.136 2.88544 145.707 3.91126 146.988 5.172C147.168 5.38342 147.355 5.59485 147.551 5.82194C147.746 6.04903 147.84 6.24479 147.84 6.42489C147.84 6.66764 147.723 6.90257 147.48 7.14532L146.136 8.4452C145.925 8.65663 145.73 8.75843 145.55 8.75843C145.308 8.75843 145.042 8.60964 144.745 8.31208L144.738 8.34341Z" fill="#373737"/>
</svg>
