<svg width="172" height="80" viewBox="0 0 172 80" fill="none" xmlns="http://www.w3.org/2000/svg">
<path d="M130.403 79.3986C154.249 79.3986 171.926 60.2979 171.926 40.3725C171.926 18.2086 152.963 0.930664 128.661 0.930664C101.226 0.930664 88.7704 20.4749 86.6819 35.0014C86.6819 35.0014 82.6154 35.0014 76.8476 35.0014C65.0493 35.0014 64.3024 35.0014 52.269 35.0014V46.1526H71.4741C69.9319 56.597 58.7767 65.6137 46.5427 66.7364C32.3931 68.0325 19.6542 61.0395 15.0345 49.4239C10.3456 37.6488 15.2696 24.8065 27.1025 18.1601C32.9671 14.868 39.4195 13.7245 46.3422 14.3344C56.6536 15.2423 63.8045 20.4125 69.4408 27.8213C73.044 25.7213 76.2875 23.8362 79.5102 21.965C70.7133 9.69091 58.1751 3.592 42.414 3.60586C24.6128 3.62666 8.54058 13.7869 2.73133 28.6876C-3.11941 43.6992 2.73133 60.4504 17.1576 69.9938C41.5634 86.1282 76.3704 75.5868 84.1991 49.7427C84.3997 49.0773 85.1051 46.1596 85.1051 46.1596H112.319V53.8733C123.515 47.5665 123.882 47.3794 135.507 40.5458C124.345 33.8162 123.702 33.442 112.319 27.0312V34.9944C106.177 34.9944 105.161 34.9182 99.3031 34.9182C100.41 26.4282 110.382 13.4196 128.336 13.4196C149.325 13.4196 159.422 27.9183 159.422 39.8042C159.422 55.5782 145.245 67.1107 129.656 67.1107C108.515 67.1107 101.426 51.406 101.426 51.406C100.396 51.4268 91.3362 51.3991 88.0927 51.3991C88.0927 51.3991 95.9006 79.3847 130.424 79.3847L130.403 79.3986Z" fill="url(#paint0_linear_4822_13310)"/>
<defs>
<linearGradient id="paint0_linear_4822_13310" x1="0.483709" y1="40.1646" x2="171.926" y2="40.1646" gradientUnits="userSpaceOnUse">
<stop stop-color="#1A6FB3"/>
<stop offset="1" stop-color="#1D3868"/>
</linearGradient>
</defs>
</svg>
